<svg width="22.500000" height="15.000000" viewBox="0 0 22.5 15" fill="none" xmlns="http://www.w3.org/2000/svg" xmlns:xlink="http://www.w3.org/1999/xlink">
	<desc>
			Created with Pixso.
	</desc>
	<defs/>
	<path id="Vector (Stroke)" d="M0 0.93C0 0.41 0.41 0 0.93 0L21.56 0C22.08 0 22.5 0.41 22.5 0.93C22.5 1.45 22.08 1.87 21.56 1.87L0.93 1.87C0.41 1.87 0 1.45 0 0.93ZM0 7.5C0 6.98 0.41 6.56 0.93 6.56L21.56 6.56C22.08 6.56 22.5 6.98 22.5 7.5C22.5 8.01 22.08 8.43 21.56 8.43L0.93 8.43C0.41 8.43 0 8.01 0 7.5ZM0 14.06C0 13.54 0.41 13.12 0.93 13.12L21.56 13.12C22.08 13.12 22.5 13.54 22.5 14.06C22.5 14.58 22.08 15 21.56 15L0.93 15C0.41 15 0 14.58 0 14.06Z" fill="#111111" fill-opacity="1.000000" fill-rule="evenodd"/>
</svg>
